<svg xmlns="http://www.w3.org/2000/svg" viewBox="0 0 4248.19 754.85"><defs><style>.cls-1,.cls-2{fill:#bb2030;}.cls-2{fill-rule:evenodd;}</style></defs><g id="Layer_2" data-name="Layer 2"><g id="Layer_1-2" data-name="Layer 1"><path class="cls-1" d="M1225.63,291.86h31.07L1395,408.37V291.86h39.71V463h-31.07L1265.34,346.73V463h-39.71Z"/><path class="cls-1" d="M1641.17,344.73V330.07h-124v95h124V399.35H1577V362.89h103.86v62.39A69.35,69.35,0,0,1,1679,443a23.73,23.73,0,0,1-18,18,69.46,69.46,0,0,1-17.73,1.94H1514.9a67.93,67.93,0,0,1-17.61-1.94,23.83,23.83,0,0,1-17.91-18,68.91,68.91,0,0,1-1.94-17.73V329.57q0-20.79,8.33-29.25t29.13-8.46h128.28a65.17,65.17,0,0,1,17.73,2.07,27.16,27.16,0,0,1,11.65,6.39A24.68,24.68,0,0,1,1679,312a69.63,69.63,0,0,1,1.94,17.6v6.89Z"/><path class="cls-1" d="M1761.57,425h113.5V291.86h39.71V425.28a69.35,69.35,0,0,1-1.94,17.73,23.73,23.73,0,0,1-18,18,68.25,68.25,0,0,1-17.48,1.94H1759.56a69.32,69.32,0,0,1-17.72-1.94,24.48,24.48,0,0,1-11.53-6.39,27.1,27.1,0,0,1-6.39-11.65,65.06,65.06,0,0,1-2.07-17.73V291.86h39.72Z"/><path class="cls-1" d="M2019.64,386.57l-89.08-94.71h53.87l57.76,64.9,58.25-64.9h47.48l-88.57,93.71V463h-39.71Z"/><path class="cls-1" d="M2165,291.86h175v38.21h-135.3v25.68h79V392h-79V425h137v38H2165Z"/><path class="cls-1" d="M2380.94,291.86H2412l138.31,116.51V291.86H2590V463H2559l-138.3-116.26V463h-39.71Z"/><path class="cls-1" d="M2607.19,291.86h46.22l68.78,122.9,65.65-122.9h39.71L2733.47,463H2705.9Z"/><path class="cls-1" d="M2882.55,425h113.5V291.86h39.71V425.28a69.35,69.35,0,0,1-1.94,17.73,23.73,23.73,0,0,1-18,18A68.25,68.25,0,0,1,2998.3,463H2880.54a69.46,69.46,0,0,1-17.73-1.94,24.49,24.49,0,0,1-11.52-6.39A27.1,27.1,0,0,1,2844.9,443a65.06,65.06,0,0,1-2.07-17.73V291.86h39.72Z"/><path class="cls-1" d="M3129.28,460.8c-1.55,1.46-4.28,2.19-8.21,2.19h-37q-5.89,0-8.21-2.19c-1.55-1.46-2.32-4.16-2.32-8.08V421.9c0-3.92.77-6.62,2.32-8.08s4.28-2.19,8.21-2.19h37c3.93,0,6.66.73,8.21,2.19s2.32,4.16,2.32,8.08v30.82C3131.6,456.64,3130.82,459.34,3129.28,460.8Z"/><path class="cls-1" d="M3201.88,404.49V425H3313.5V395H3204a71.47,71.47,0,0,1-17.73-1.88,24.07,24.07,0,0,1-11.53-6.39,27.49,27.49,0,0,1-6.38-11.72,65,65,0,0,1-2.07-17.72V329.57q0-20.79,8.45-29.25t29.26-8.46h109.24a65,65,0,0,1,17.72,2.07,27.61,27.61,0,0,1,11.72,6.39,24,24,0,0,1,6.39,11.65,71.76,71.76,0,0,1,1.88,17.6v11.78l-39.72,8.27V330.07H3206v28.44h109.62a64.37,64.37,0,0,1,17.66,2.07,27.13,27.13,0,0,1,11.65,6.45,24.7,24.7,0,0,1,6.45,11.71,69.25,69.25,0,0,1,2,17.6v28.94a68.86,68.86,0,0,1-2,17.73,25.07,25.07,0,0,1-6.45,11.65,25.77,25.77,0,0,1-11.65,6.39,68.61,68.61,0,0,1-17.66,1.94h-116a67.9,67.9,0,0,1-17.6-1.94,23.79,23.79,0,0,1-17.91-18,68.86,68.86,0,0,1-2-17.73V412.75Z"/><path class="cls-1" d="M3494,463h-40V330.07h-78.55V291.86h197.06v38.21H3494Z"/><path class="cls-1" d="M3800.07,425.28a68.91,68.91,0,0,1-1.94,17.73,23.73,23.73,0,0,1-18,18,69.32,69.32,0,0,1-17.72,1.94H3634.08a67.9,67.9,0,0,1-17.6-1.94,23.83,23.83,0,0,1-17.91-18,68.86,68.86,0,0,1-2-17.73V329.57q0-20.79,8.34-29.25t29.12-8.46h128.29a65,65,0,0,1,17.72,2.07,27.1,27.1,0,0,1,11.65,6.39,24.51,24.51,0,0,1,6.39,11.65,69.18,69.18,0,0,1,1.94,17.6Zm-39.71-.25v-95h-124v95Z"/><path class="cls-1" d="M3842.92,463V291.86h146.7a91,91,0,0,1,15.28,1,31.43,31.43,0,0,1,10.4,3.89,21.56,21.56,0,0,1,10,11.27q2.68,7.14,2.69,21.55v31.32a99.16,99.16,0,0,1-.69,13.47,33.26,33.26,0,0,1-2.69,9.08A21.28,21.28,0,0,1,4013,395q-8,3.32-23.36,3.32H3969.2L4045.87,463h-57.25l-70.28-64.64h-35.71V463Zm128.53-100.85q9,0,12.84-2.94t3.83-9.58v-7.27q0-6.64-3.83-9.46t-12.84-2.82h-88.82v32.07Z"/><path class="cls-1" d="M4071.42,291.86h175v38.21h-135.3v25.68h79V392h-79V425h137v38H4071.42Z"/><path class="cls-2" d="M435.81,0H145.27L581.08,754.85,726.35,503.24,435.81,0ZM290.54,754.85H0L145.27,503.24,290.54,754.85ZM726.36,0,871.63,251.62,1016.9,0Z"/></g></g></svg>